<svg width="300" height="300" viewBox="0 0 300 300" fill="none" xmlns="http://www.w3.org/2000/svg"><path fill="white" d="M0 0H300V300H0z"/><path d="M275.773 150.15C275.773 80.7698 219.53 24.5264 150.15 24.5264C80.7701 24.5264 24.5267 80.7698 24.5267 150.15C24.5267 219.529 80.7701 275.773 150.15 275.773V283.549C76.4751 283.549 16.75 223.824 16.75 150.15C16.75 76.4749 76.4751 16.7498 150.15 16.7498C223.824 16.7498 283.55 76.4749 283.55 150.15C283.55 223.824 223.824 283.549 150.15 283.549V275.773C219.53 275.773 275.773 219.529 275.773 150.15Z" fill="#004AAD" fill-opacity="0.2"/><path d="M58.624 200.971V99.3021H96.6772C105.295 99.3021 112.702 100.706 118.899 103.514C125.096 106.225 129.841 110.195 133.133 115.424C136.522 120.556 138.216 126.801 138.216 134.16C138.216 141.325 136.522 147.522 133.133 152.751C129.841 157.883 125.096 161.853 118.899 164.661C112.702 167.372 105.295 168.727 96.6772 168.727H64.5789L69.3719 163.789V200.971H58.624ZM128.049 200.971L101.906 164.08H113.525L139.814 200.971H128.049ZM69.3719 164.661L64.5789 159.577H96.3867C106.554 159.577 114.251 157.35 119.48 152.896C124.806 148.442 127.468 142.197 127.468 134.16C127.468 126.026 124.806 119.733 119.48 115.279C114.251 110.825 106.554 108.598 96.3867 108.598H64.5789L69.3719 103.514V164.661Z" fill="#004AAD"/><path d="M132.706 197.431C132.706 196.381 133.136 195.473 133.996 194.709C134.855 193.945 135.763 193.277 136.718 192.704C137.768 192.035 138.723 190.889 139.583 189.265C140.538 187.642 141.063 185.636 141.159 183.248L143.881 118.064C143.881 117.777 143.881 117.538 143.881 117.347C143.881 115.437 143.499 113.766 142.735 112.333C142.066 110.805 141.254 109.754 140.299 109.181C139.344 108.513 138.437 107.749 137.577 106.889C136.813 105.934 136.431 104.931 136.431 103.881C136.431 102.639 136.861 101.779 137.721 101.302C138.676 100.824 140.299 100.586 142.592 100.586H156.631C158.828 100.586 160.404 101.636 161.359 103.737L190.298 172.36L221.816 103.737C222.771 101.636 224.347 100.586 226.544 100.586H239.724C243.926 100.586 246.027 101.684 246.027 103.881C246.027 105.027 245.597 106.03 244.738 106.889C243.974 107.653 243.114 108.322 242.159 108.895C241.204 109.468 240.345 110.518 239.58 112.047C238.912 113.479 238.578 115.246 238.578 117.347C238.578 117.538 238.578 117.777 238.578 118.064L240.583 181.386C240.679 184.156 241.204 186.4 242.159 188.119C243.114 189.838 244.117 190.984 245.168 191.557C246.218 192.131 247.173 192.895 248.033 193.85C248.988 194.709 249.466 195.855 249.466 197.288C249.466 198.625 248.94 199.58 247.89 200.153C246.839 200.631 245.024 200.87 242.446 200.87H223.678C218.616 200.87 216.085 199.676 216.085 197.288C216.085 195.951 216.515 194.805 217.375 193.85C218.234 192.895 219.142 192.131 220.097 191.557C221.147 190.984 222.055 189.886 222.819 188.262C223.678 186.543 224.108 184.538 224.108 182.245C224.108 181.959 224.108 181.672 224.108 181.386L222.819 121.788L190.871 191.271C189.916 193.086 188.388 194.232 186.287 194.709C185.618 194.9 185.045 194.996 184.568 194.996C183.039 194.996 181.941 194.279 181.272 192.847L151.904 122.791L149.898 183.248C149.898 183.535 149.898 183.821 149.898 184.108C149.898 186.113 150.232 187.88 150.901 189.409C151.569 190.937 152.333 191.987 153.193 192.56C154.148 193.133 155.008 193.85 155.772 194.709C156.536 195.473 156.918 196.381 156.918 197.431C156.918 198.768 156.392 199.676 155.342 200.153C154.387 200.631 152.763 200.87 150.471 200.87H139.296C134.903 200.87 132.706 199.723 132.706 197.431Z" fill="#004AAD"/></svg>